<svg xmlns="http://www.w3.org/2000/svg" width="26.996" height="26.996" viewBox="0 0 26.996 26.996">
  <path id="addimage" d="M23.833,0H3.164A3.167,3.167,0,0,0,0,3.164V23.833A3.167,3.167,0,0,0,3.164,27H23.833A3.167,3.167,0,0,0,27,23.833V3.164A3.167,3.167,0,0,0,23.833,0ZM3.164,2.109H23.833a1.056,1.056,0,0,1,1.055,1.055V18.65L21.3,15.061a3.167,3.167,0,0,0-4.474,0L15.66,16.225l-3.273-3.273a3.167,3.167,0,0,0-4.474,0l-5.8,5.8V3.164A1.056,1.056,0,0,1,3.164,2.109ZM23.833,24.887H3.164a1.056,1.056,0,0,1-1.055-1.055V21.739l7.3-7.3a1.056,1.056,0,0,1,1.491,0l4.764,4.764,2.655-2.655a1.056,1.056,0,0,1,1.491,0l5.081,5.081v2.2A1.056,1.056,0,0,1,23.833,24.887ZM17.084,10.545A3.164,3.164,0,1,0,13.92,7.382,3.167,3.167,0,0,0,17.084,10.545Zm0-4.218a1.055,1.055,0,1,1-1.055,1.055A1.056,1.056,0,0,1,17.084,6.327Z" fill="rgba(255,102,99,0.9)" opacity="0.9"/>
</svg>
