<svg id="userprofile" xmlns="http://www.w3.org/2000/svg" width="28.704" height="30.219" viewBox="0 0 28.704 30.219">
  <g id="Group_3" data-name="Group 3">
    <path id="Path_6" data-name="Path 6" d="M143.5,16.283h.2a5.774,5.774,0,0,0,4.412-1.909c2.409-2.716,2.009-7.372,1.965-7.816-.156-3.335-1.733-4.931-3.035-5.676A6.957,6.957,0,0,0,143.678,0h-.106a6.968,6.968,0,0,0-3.367.857c-1.314.745-2.916,2.34-3.073,5.7-.044.444-.444,5.1,1.965,7.816A5.751,5.751,0,0,0,143.5,16.283Zm-4.7-9.568c0-.019.006-.038.006-.05.207-4.487,3.392-4.969,4.756-4.969h.075c1.69.038,4.562.726,4.756,4.969a.122.122,0,0,0,.006.05c.006.044.444,4.3-1.546,6.539a4.1,4.1,0,0,1-3.223,1.339h-.063a4.088,4.088,0,0,1-3.216-1.339C138.372,11.026,138.8,6.752,138.8,6.715Z" transform="translate(-130.761)" fill="#5C6DFF"/>
    <path id="Path_7" data-name="Path 7" d="M61.775,267.026v-.019c0-.05-.006-.1-.006-.156-.038-1.239-.119-4.136-2.835-5.062l-.063-.019a18.056,18.056,0,0,1-5.194-2.365.845.845,0,0,0-.97,1.383,19.489,19.489,0,0,0,5.713,2.61c1.458.519,1.621,2.078,1.665,3.5a1.257,1.257,0,0,0,.006.156,11.359,11.359,0,0,1-.131,1.934,23.03,23.03,0,0,1-11.032,2.566,23.164,23.164,0,0,1-11.039-2.572,10.754,10.754,0,0,1-.131-1.934c0-.05.006-.1.006-.156.044-1.427.207-2.985,1.665-3.5a19.672,19.672,0,0,0,5.713-2.609.845.845,0,0,0-.97-1.383,17.857,17.857,0,0,1-5.194,2.365c-.025.006-.044.013-.063.019-2.716.932-2.8,3.83-2.835,5.062a1.257,1.257,0,0,1-.006.156v.019a9.6,9.6,0,0,0,.319,2.835.8.8,0,0,0,.325.394c.188.125,4.687,2.991,12.215,2.991s12.027-2.872,12.215-2.991a.837.837,0,0,0,.325-.394A10.068,10.068,0,0,0,61.775,267.026Z" transform="translate(-36.073 -243.021)" fill="#5C6DFF"/>
  </g>
</svg>
