<svg id="Menu_icon_open_" data-name="Menu icon(open)" xmlns="http://www.w3.org/2000/svg" width="28.7" height="18.917" viewBox="0 0 28.7 18.917">
  <path id="Path_1" data-name="Path 1" d="M29.8,3.4H4.3c-.9,0-1.6.313-1.6.625v1.25c0,.391.7.625,1.6.625H29.8c.9,0,1.6-.312,1.6-.625V4.1C31.4,3.713,30.7,3.4,29.8,3.4Z" transform="translate(-2.7 -3.4)" fill="#5C6DFF"/>
  <path id="Path_2" data-name="Path 2" d="M29.8,8.3H4.3c-.9,0-1.6.313-1.6.625v1.25c0,.391.7.625,1.6.625H29.8c.9,0,1.6-.312,1.6-.625V9C31.4,8.613,30.7,8.3,29.8,8.3Z" transform="translate(-2.7 -0.174)" fill="#5C6DFF"/>
  <path id="Path_3" data-name="Path 3" d="M29.8,13.3H4.3c-.9,0-1.6.313-1.6.625v1.25c0,.391.7.625,1.6.625H29.8c.9,0,1.6-.313,1.6-.625v-1.25C31.4,13.534,30.7,13.3,29.8,13.3Z" transform="translate(-2.7 3.117)" fill="#5C6DFF"/>
</svg>
